<?xml version="1.0" encoding="UTF-8" standalone="no"?><!-- Generator: Gravit.io --><svg xmlns="http://www.w3.org/2000/svg" xmlns:xlink="http://www.w3.org/1999/xlink" style="isolation:isolate" viewBox="0 0 362.9 95" width="362.9pt" height="95pt"><defs><clipPath id="_clipPath_b7Md6hidhdFibPr27SY0F0H1jXq5lZyN"><rect width="362.9" height="95"/></clipPath></defs><g clip-path="url(#_clipPath_b7Md6hidhdFibPr27SY0F0H1jXq5lZyN)"><g><g opacity="0"><rect x="0" y="0" width="362.9" height="95" transform="matrix(1,0,0,1,0,0)" fill="none"/></g><g><path d=" M 247.406 72.042 L 247.406 72.042 L 247.406 72.042 Q 247.406 71.319 246.811 70.94 L 246.811 70.94 L 246.811 70.94 Q 246.215 70.562 244.835 70.272 L 244.835 70.272 L 244.835 70.272 Q 243.454 69.983 242.53 69.538 L 242.53 69.538 L 242.53 69.538 Q 240.504 68.558 240.504 66.699 L 240.504 66.699 L 240.504 66.699 Q 240.504 65.14 241.818 64.094 L 241.818 64.094 L 241.818 64.094 Q 243.131 63.047 245.158 63.047 L 245.158 63.047 L 245.158 63.047 Q 247.317 63.047 248.648 64.116 L 248.648 64.116 L 248.648 64.116 Q 249.978 65.185 249.978 66.888 L 249.978 66.888 L 247.273 66.888 L 247.273 66.888 Q 247.273 66.109 246.694 65.591 L 246.694 65.591 L 246.694 65.591 Q 246.115 65.073 245.158 65.073 L 245.158 65.073 L 245.158 65.073 Q 244.267 65.073 243.705 65.485 L 243.705 65.485 L 243.705 65.485 Q 243.142 65.897 243.142 66.587 L 243.142 66.587 L 243.142 66.587 Q 243.142 67.211 243.666 67.556 L 243.666 67.556 L 243.666 67.556 Q 244.189 67.901 245.781 68.252 L 245.781 68.252 L 245.781 68.252 Q 247.373 68.602 248.28 69.087 L 248.28 69.087 L 248.28 69.087 Q 249.188 69.571 249.627 70.25 L 249.627 70.25 L 249.627 70.25 Q 250.067 70.929 250.067 71.898 L 250.067 71.898 L 250.067 71.898 Q 250.067 73.523 248.72 74.531 L 248.72 74.531 L 248.72 74.531 Q 247.373 75.538 245.191 75.538 L 245.191 75.538 L 245.191 75.538 Q 243.71 75.538 242.552 75.004 L 242.552 75.004 L 242.552 75.004 Q 241.395 74.469 240.749 73.534 L 240.749 73.534 L 240.749 73.534 Q 240.103 72.599 240.103 71.519 L 240.103 71.519 L 242.731 71.519 L 242.731 71.519 Q 242.786 72.477 243.454 72.994 L 243.454 72.994 L 243.454 72.994 Q 244.122 73.512 245.224 73.512 L 245.224 73.512 L 245.224 73.512 Q 246.293 73.512 246.85 73.106 L 246.85 73.106 L 246.85 73.106 Q 247.406 72.699 247.406 72.042 Z  M 255.3 63.27 L 255.3 75.315 L 252.594 75.315 L 252.594 63.27 L 255.3 63.27 Z  M 252.427 60.141 L 252.427 60.141 L 252.427 60.141 Q 252.427 59.518 252.822 59.106 L 252.822 59.106 L 252.822 59.106 Q 253.218 58.694 253.952 58.694 L 253.952 58.694 L 253.952 58.694 Q 254.687 58.694 255.088 59.106 L 255.088 59.106 L 255.088 59.106 Q 255.489 59.518 255.489 60.141 L 255.489 60.141 L 255.489 60.141 Q 255.489 60.754 255.088 61.16 L 255.088 61.16 L 255.088 61.16 Q 254.687 61.566 253.952 61.566 L 253.952 61.566 L 253.952 61.566 Q 253.218 61.566 252.822 61.16 L 252.822 61.16 L 252.822 61.16 Q 252.427 60.754 252.427 60.141 Z  M 264.562 63.203 L 264.551 65.741 L 264.551 65.741 Q 264.017 65.652 263.449 65.652 L 263.449 65.652 L 263.449 65.652 Q 261.59 65.652 260.944 67.077 L 260.944 67.077 L 260.944 75.315 L 258.239 75.315 L 258.239 63.27 L 260.821 63.27 L 260.888 64.617 L 260.888 64.617 Q 261.868 63.047 263.605 63.047 L 263.605 63.047 L 263.605 63.047 Q 264.183 63.047 264.562 63.203 L 264.562 63.203 Z  M 267.501 60.342 L 270.206 60.342 L 270.206 63.27 L 272.333 63.27 L 272.333 65.274 L 270.206 65.274 L 270.206 71.998 L 270.206 71.998 Q 270.206 72.688 270.479 72.994 L 270.479 72.994 L 270.479 72.994 Q 270.752 73.3 271.453 73.3 L 271.453 73.3 L 271.453 73.3 Q 271.921 73.3 272.4 73.189 L 272.4 73.189 L 272.4 75.282 L 272.4 75.282 Q 271.475 75.538 270.618 75.538 L 270.618 75.538 L 270.618 75.538 Q 267.501 75.538 267.501 72.098 L 267.501 72.098 L 267.501 65.274 L 265.519 65.274 L 265.519 63.27 L 267.501 63.27 L 267.501 60.342 Z  M 277.064 58.215 L 277.064 64.583 L 277.064 64.583 Q 278.389 63.047 280.415 63.047 L 280.415 63.047 L 280.415 63.047 Q 284.267 63.047 284.323 67.445 L 284.323 67.445 L 284.323 75.315 L 281.617 75.315 L 281.617 67.545 L 281.617 67.545 Q 281.617 66.298 281.078 65.78 L 281.078 65.78 L 281.078 65.78 Q 280.538 65.263 279.491 65.263 L 279.491 65.263 L 279.491 65.263 Q 277.866 65.263 277.064 66.71 L 277.064 66.71 L 277.064 75.315 L 274.359 75.315 L 274.359 58.215 L 277.064 58.215 Z  M 289.132 63.27 L 291.381 67.233 L 293.674 63.27 L 296.68 63.27 L 292.995 69.204 L 296.803 75.315 L 293.819 75.315 L 291.414 71.196 L 289.021 75.315 L 286.015 75.315 L 289.822 69.204 L 286.149 63.27 L 289.132 63.27 Z  M 308.481 75.315 L 305.72 75.315 L 305.72 75.315 Q 305.542 74.97 305.408 74.191 L 305.408 74.191 L 305.408 74.191 Q 304.117 75.538 302.247 75.538 L 302.247 75.538 L 302.247 75.538 Q 300.432 75.538 299.285 74.503 L 299.285 74.503 L 299.285 74.503 Q 298.139 73.467 298.139 71.942 L 298.139 71.942 L 298.139 71.942 Q 298.139 70.016 299.569 68.986 L 299.569 68.986 L 299.569 68.986 Q 301 67.957 303.66 67.957 L 303.66 67.957 L 305.319 67.957 L 305.319 67.166 L 305.319 67.166 Q 305.319 66.231 304.796 65.669 L 304.796 65.669 L 304.796 65.669 Q 304.273 65.107 303.204 65.107 L 303.204 65.107 L 303.204 65.107 Q 302.28 65.107 301.69 65.569 L 301.69 65.569 L 301.69 65.569 Q 301.1 66.031 301.1 66.743 L 301.1 66.743 L 298.395 66.743 L 298.395 66.743 Q 298.395 65.752 299.051 64.89 L 299.051 64.89 L 299.051 64.89 Q 299.708 64.027 300.838 63.537 L 300.838 63.537 L 300.838 63.537 Q 301.968 63.047 303.36 63.047 L 303.36 63.047 L 303.36 63.047 Q 305.475 63.047 306.733 64.11 L 306.733 64.11 L 306.733 64.11 Q 307.991 65.173 308.025 67.099 L 308.025 67.099 L 308.025 72.532 L 308.025 72.532 Q 308.025 74.158 308.481 75.126 L 308.481 75.126 L 308.481 75.315 Z  M 302.748 73.367 L 302.748 73.367 L 302.748 73.367 Q 303.549 73.367 304.256 72.978 L 304.256 72.978 L 304.256 72.978 Q 304.963 72.588 305.319 71.931 L 305.319 71.931 L 305.319 69.66 L 303.861 69.66 L 303.861 69.66 Q 302.358 69.66 301.601 70.183 L 301.601 70.183 L 301.601 70.183 Q 300.844 70.706 300.844 71.664 L 300.844 71.664 L 300.844 71.664 Q 300.844 72.443 301.362 72.905 L 301.362 72.905 L 301.362 72.905 Q 301.879 73.367 302.748 73.367 Z  M 313.736 58.215 L 313.736 75.315 L 311.03 75.315 L 311.03 58.215 L 313.736 58.215 Z  M 316.174 69.315 L 316.174 69.181 L 316.174 69.181 Q 316.174 67.411 316.875 65.992 L 316.875 65.992 L 316.875 65.992 Q 317.576 64.572 318.846 63.81 L 318.846 63.81 L 318.846 63.81 Q 320.115 63.047 321.762 63.047 L 321.762 63.047 L 321.762 63.047 Q 324.2 63.047 325.72 64.617 L 325.72 64.617 L 325.72 64.617 Q 327.24 66.187 327.362 68.781 L 327.362 68.781 L 327.373 69.415 L 327.373 69.415 Q 327.373 71.196 326.689 72.599 L 326.689 72.599 L 326.689 72.599 Q 326.004 74.002 324.729 74.77 L 324.729 74.77 L 324.729 74.77 Q 323.455 75.538 321.785 75.538 L 321.785 75.538 L 321.785 75.538 Q 319.235 75.538 317.704 73.84 L 317.704 73.84 L 317.704 73.84 Q 316.174 72.143 316.174 69.315 L 316.174 69.315 Z  M 318.879 69.415 L 318.879 69.415 L 318.879 69.415 Q 318.879 71.274 319.647 72.326 L 319.647 72.326 L 319.647 72.326 Q 320.415 73.378 321.785 73.378 L 321.785 73.378 L 321.785 73.378 Q 323.154 73.378 323.917 72.31 L 323.917 72.31 L 323.917 72.31 Q 324.679 71.241 324.679 69.181 L 324.679 69.181 L 324.679 69.181 Q 324.679 67.356 323.894 66.287 L 323.894 66.287 L 323.894 66.287 Q 323.109 65.218 321.762 65.218 L 321.762 65.218 L 321.762 65.218 Q 320.438 65.218 319.658 66.27 L 319.658 66.27 L 319.658 66.27 Q 318.879 67.322 318.879 69.415 Z  M 330.346 60.342 L 333.051 60.342 L 333.051 63.27 L 335.177 63.27 L 335.177 65.274 L 333.051 65.274 L 333.051 71.998 L 333.051 71.998 Q 333.051 72.688 333.324 72.994 L 333.324 72.994 L 333.324 72.994 Q 333.597 73.3 334.298 73.3 L 334.298 73.3 L 334.298 73.3 Q 334.766 73.3 335.244 73.189 L 335.244 73.189 L 335.244 75.282 L 335.244 75.282 Q 334.32 75.538 333.463 75.538 L 333.463 75.538 L 333.463 75.538 Q 330.346 75.538 330.346 72.098 L 330.346 72.098 L 330.346 65.274 L 328.364 65.274 L 328.364 63.27 L 330.346 63.27 L 330.346 60.342 Z  M 221.934 69.215 L 221.934 69.415 L 221.934 69.415 Q 221.934 72.232 220.688 73.885 L 220.688 73.885 L 220.688 73.885 Q 219.441 75.538 217.337 75.538 L 217.337 75.538 L 217.337 75.538 Q 214.821 75.538 213.529 73.668 L 213.529 73.668 L 213.474 75.315 L 212.227 75.315 L 212.227 58.215 L 213.551 58.215 L 213.551 65.018 L 213.551 65.018 Q 214.821 63.047 217.314 63.047 L 217.314 63.047 L 217.314 63.047 Q 219.452 63.047 220.693 64.678 L 220.693 64.678 L 220.693 64.678 Q 221.934 66.309 221.934 69.215 L 221.934 69.215 Z  M 220.599 69.181 L 220.599 69.181 L 220.599 69.181 Q 220.599 66.799 219.675 65.502 L 219.675 65.502 L 219.675 65.502 Q 218.75 64.205 217.069 64.205 L 217.069 64.205 L 217.069 64.205 Q 215.789 64.205 214.899 64.834 L 214.899 64.834 L 214.899 64.834 Q 214.008 65.463 213.551 66.676 L 213.551 66.676 L 213.551 72.109 L 213.551 72.109 Q 214.553 74.38 217.092 74.38 L 217.092 74.38 L 217.092 74.38 Q 218.739 74.38 219.669 73.078 L 219.669 73.078 L 219.669 73.078 Q 220.599 71.775 220.599 69.181 Z  M 224.829 63.27 L 228.57 73.401 L 232.088 63.27 L 233.524 63.27 L 228.38 77.364 L 228.113 77.987 L 228.113 77.987 Q 227.122 80.181 225.052 80.181 L 225.052 80.181 L 225.052 80.181 Q 224.573 80.181 224.027 80.025 L 224.027 80.025 L 224.016 78.923 L 224.707 78.989 L 224.707 78.989 Q 225.686 78.989 226.293 78.505 L 226.293 78.505 L 226.293 78.505 Q 226.9 78.021 227.323 76.841 L 227.323 76.841 L 227.913 75.215 L 223.371 63.27 L 224.829 63.27 Z  M 116.885 69.226 L 116.885 69.415 L 116.885 69.415 Q 116.885 72.232 115.638 73.885 L 115.638 73.885 L 115.638 73.885 Q 114.392 75.538 112.299 75.538 L 112.299 75.538 L 112.299 75.538 Q 109.827 75.538 108.513 73.801 L 108.513 73.801 L 108.513 79.947 L 107.189 79.947 L 107.189 63.27 L 108.424 63.27 L 108.491 64.973 L 108.491 64.973 Q 109.794 63.047 112.265 63.047 L 112.265 63.047 L 112.265 63.047 Q 114.425 63.047 115.655 64.684 L 115.655 64.684 L 115.655 64.684 Q 116.885 66.32 116.885 69.226 L 116.885 69.226 Z  M 115.549 69.181 L 115.549 69.181 L 115.549 69.181 Q 115.549 66.877 114.603 65.541 L 114.603 65.541 L 114.603 65.541 Q 113.657 64.205 111.965 64.205 L 111.965 64.205 L 111.965 64.205 Q 110.74 64.205 109.86 64.795 L 109.86 64.795 L 109.86 64.795 Q 108.981 65.385 108.513 66.509 L 108.513 66.509 L 108.513 72.287 L 108.513 72.287 Q 108.992 73.323 109.883 73.868 L 109.883 73.868 L 109.883 73.868 Q 110.773 74.414 111.987 74.414 L 111.987 74.414 L 111.987 74.414 Q 113.668 74.414 114.609 73.072 L 114.609 73.072 L 114.609 73.072 Q 115.549 71.731 115.549 69.181 Z  M 125.435 63.192 L 125.402 64.405 L 125.402 64.405 Q 124.979 64.327 124.5 64.327 L 124.5 64.327 L 124.5 64.327 Q 123.253 64.327 122.39 65.023 L 122.39 65.023 L 122.39 65.023 Q 121.528 65.719 121.16 67.044 L 121.16 67.044 L 121.16 75.315 L 119.835 75.315 L 119.835 63.27 L 121.138 63.27 L 121.16 65.185 L 121.16 65.185 Q 122.218 63.047 124.556 63.047 L 124.556 63.047 L 124.556 63.047 Q 125.112 63.047 125.435 63.192 L 125.435 63.192 Z  M 131.959 75.538 L 131.959 75.538 L 131.959 75.538 Q 130.423 75.538 129.181 74.781 L 129.181 74.781 L 129.181 74.781 Q 127.94 74.024 127.25 72.671 L 127.25 72.671 L 127.25 72.671 Q 126.56 71.319 126.56 69.638 L 126.56 69.638 L 126.56 69.159 L 126.56 69.159 Q 126.56 67.422 127.233 66.031 L 127.233 66.031 L 127.233 66.031 Q 127.907 64.639 129.109 63.843 L 129.109 63.843 L 129.109 63.843 Q 130.311 63.047 131.714 63.047 L 131.714 63.047 L 131.714 63.047 Q 133.907 63.047 135.193 64.544 L 135.193 64.544 L 135.193 64.544 Q 136.479 66.042 136.479 68.636 L 136.479 68.636 L 136.479 69.382 L 127.884 69.382 L 127.884 69.638 L 127.884 69.638 Q 127.884 71.686 129.059 73.05 L 129.059 73.05 L 129.059 73.05 Q 130.233 74.414 132.015 74.414 L 132.015 74.414 L 132.015 74.414 Q 133.083 74.414 133.902 74.024 L 133.902 74.024 L 133.902 74.024 Q 134.72 73.634 135.388 72.777 L 135.388 72.777 L 136.223 73.412 L 136.223 73.412 Q 134.753 75.538 131.959 75.538 Z  M 131.714 64.183 L 131.714 64.183 L 131.714 64.183 Q 130.211 64.183 129.181 65.285 L 129.181 65.285 L 129.181 65.285 Q 128.152 66.387 127.929 68.246 L 127.929 68.246 L 135.154 68.246 L 135.154 68.101 L 135.154 68.101 Q 135.099 66.365 134.163 65.274 L 134.163 65.274 L 134.163 65.274 Q 133.228 64.183 131.714 64.183 Z  M 146.287 72.254 L 146.287 72.254 L 146.287 72.254 Q 146.287 71.263 145.491 70.662 L 145.491 70.662 L 145.491 70.662 Q 144.695 70.061 143.092 69.721 L 143.092 69.721 L 143.092 69.721 Q 141.489 69.382 140.604 68.942 L 140.604 68.942 L 140.604 68.942 Q 139.719 68.502 139.29 67.868 L 139.29 67.868 L 139.29 67.868 Q 138.861 67.233 138.861 66.331 L 138.861 66.331 L 138.861 66.331 Q 138.861 64.906 140.053 63.977 L 140.053 63.977 L 140.053 63.977 Q 141.244 63.047 143.103 63.047 L 143.103 63.047 L 143.103 63.047 Q 145.118 63.047 146.337 64.044 L 146.337 64.044 L 146.337 64.044 Q 147.556 65.04 147.556 66.643 L 147.556 66.643 L 146.22 66.643 L 146.22 66.643 Q 146.22 65.585 145.335 64.884 L 145.335 64.884 L 145.335 64.884 Q 144.45 64.183 143.103 64.183 L 143.103 64.183 L 143.103 64.183 Q 141.789 64.183 140.993 64.767 L 140.993 64.767 L 140.993 64.767 Q 140.197 65.352 140.197 66.287 L 140.197 66.287 L 140.197 66.287 Q 140.197 67.189 140.86 67.684 L 140.86 67.684 L 140.86 67.684 Q 141.522 68.179 143.276 68.591 L 143.276 68.591 L 143.276 68.591 Q 145.029 69.003 145.903 69.471 L 145.903 69.471 L 145.903 69.471 Q 146.777 69.938 147.2 70.595 L 147.2 70.595 L 147.2 70.595 Q 147.623 71.252 147.623 72.187 L 147.623 72.187 L 147.623 72.187 Q 147.623 73.712 146.393 74.625 L 146.393 74.625 L 146.393 74.625 Q 145.163 75.538 143.181 75.538 L 143.181 75.538 L 143.181 75.538 Q 141.077 75.538 139.769 74.519 L 139.769 74.519 L 139.769 74.519 Q 138.461 73.501 138.461 71.942 L 138.461 71.942 L 139.797 71.942 L 139.797 71.942 Q 139.875 73.111 140.782 73.762 L 140.782 73.762 L 140.782 73.762 Q 141.689 74.414 143.181 74.414 L 143.181 74.414 L 143.181 74.414 Q 144.573 74.414 145.43 73.801 L 145.43 73.801 L 145.43 73.801 Q 146.287 73.189 146.287 72.254 Z  M 155.282 75.538 L 155.282 75.538 L 155.282 75.538 Q 153.746 75.538 152.505 74.781 L 152.505 74.781 L 152.505 74.781 Q 151.263 74.024 150.573 72.671 L 150.573 72.671 L 150.573 72.671 Q 149.883 71.319 149.883 69.638 L 149.883 69.638 L 149.883 69.159 L 149.883 69.159 Q 149.883 67.422 150.556 66.031 L 150.556 66.031 L 150.556 66.031 Q 151.23 64.639 152.432 63.843 L 152.432 63.843 L 152.432 63.843 Q 153.635 63.047 155.037 63.047 L 155.037 63.047 L 155.037 63.047 Q 157.231 63.047 158.516 64.544 L 158.516 64.544 L 158.516 64.544 Q 159.802 66.042 159.802 68.636 L 159.802 68.636 L 159.802 69.382 L 151.208 69.382 L 151.208 69.638 L 151.208 69.638 Q 151.208 71.686 152.382 73.05 L 152.382 73.05 L 152.382 73.05 Q 153.557 74.414 155.338 74.414 L 155.338 74.414 L 155.338 74.414 Q 156.407 74.414 157.225 74.024 L 157.225 74.024 L 157.225 74.024 Q 158.043 73.634 158.711 72.777 L 158.711 72.777 L 159.546 73.412 L 159.546 73.412 Q 158.077 75.538 155.282 75.538 Z  M 155.037 64.183 L 155.037 64.183 L 155.037 64.183 Q 153.534 64.183 152.505 65.285 L 152.505 65.285 L 152.505 65.285 Q 151.475 66.387 151.252 68.246 L 151.252 68.246 L 158.477 68.246 L 158.477 68.101 L 158.477 68.101 Q 158.422 66.365 157.487 65.274 L 157.487 65.274 L 157.487 65.274 Q 156.551 64.183 155.037 64.183 Z  M 162.396 63.27 L 163.665 63.27 L 163.71 65.329 L 163.71 65.329 Q 164.389 64.216 165.402 63.632 L 165.402 63.632 L 165.402 63.632 Q 166.415 63.047 167.64 63.047 L 167.64 63.047 L 167.64 63.047 Q 169.577 63.047 170.523 64.138 L 170.523 64.138 L 170.523 64.138 Q 171.469 65.229 171.481 67.411 L 171.481 67.411 L 171.481 75.315 L 170.156 75.315 L 170.156 67.4 L 170.156 67.4 Q 170.145 65.786 169.471 64.995 L 169.471 64.995 L 169.471 64.995 Q 168.798 64.205 167.317 64.205 L 167.317 64.205 L 167.317 64.205 Q 166.081 64.205 165.129 64.979 L 165.129 64.979 L 165.129 64.979 Q 164.177 65.752 163.721 67.066 L 163.721 67.066 L 163.721 75.315 L 162.396 75.315 L 162.396 63.27 Z  M 175.655 60.186 L 176.991 60.186 L 176.991 63.27 L 179.485 63.27 L 179.485 64.361 L 176.991 64.361 L 176.991 72.388 L 176.991 72.388 Q 176.991 73.39 177.353 73.879 L 177.353 73.879 L 177.353 73.879 Q 177.715 74.369 178.561 74.369 L 178.561 74.369 L 178.561 74.369 Q 178.895 74.369 179.641 74.258 L 179.641 74.258 L 179.697 75.349 L 179.697 75.349 Q 179.173 75.538 178.272 75.538 L 178.272 75.538 L 178.272 75.538 Q 176.902 75.538 176.279 74.742 L 176.279 74.742 L 176.279 74.742 Q 175.655 73.946 175.655 72.399 L 175.655 72.399 L 175.655 64.361 L 173.44 64.361 L 173.44 63.27 L 175.655 63.27 L 175.655 60.186 Z  M 186.911 75.538 L 186.911 75.538 L 186.911 75.538 Q 185.374 75.538 184.133 74.781 L 184.133 74.781 L 184.133 74.781 Q 182.892 74.024 182.201 72.671 L 182.201 72.671 L 182.201 72.671 Q 181.511 71.319 181.511 69.638 L 181.511 69.638 L 181.511 69.159 L 181.511 69.159 Q 181.511 67.422 182.185 66.031 L 182.185 66.031 L 182.185 66.031 Q 182.858 64.639 184.061 63.843 L 184.061 63.843 L 184.061 63.843 Q 185.263 63.047 186.666 63.047 L 186.666 63.047 L 186.666 63.047 Q 188.859 63.047 190.145 64.544 L 190.145 64.544 L 190.145 64.544 Q 191.431 66.042 191.431 68.636 L 191.431 68.636 L 191.431 69.382 L 182.836 69.382 L 182.836 69.638 L 182.836 69.638 Q 182.836 71.686 184.011 73.05 L 184.011 73.05 L 184.011 73.05 Q 185.185 74.414 186.966 74.414 L 186.966 74.414 L 186.966 74.414 Q 188.035 74.414 188.853 74.024 L 188.853 74.024 L 188.853 74.024 Q 189.672 73.634 190.34 72.777 L 190.34 72.777 L 191.175 73.412 L 191.175 73.412 Q 189.705 75.538 186.911 75.538 Z  M 186.666 64.183 L 186.666 64.183 L 186.666 64.183 Q 185.163 64.183 184.133 65.285 L 184.133 65.285 L 184.133 65.285 Q 183.103 66.387 182.881 68.246 L 182.881 68.246 L 190.106 68.246 L 190.106 68.101 L 190.106 68.101 Q 190.05 66.365 189.115 65.274 L 189.115 65.274 L 189.115 65.274 Q 188.18 64.183 186.666 64.183 Z  M 193.49 69.337 L 193.49 69.181 L 193.49 69.181 Q 193.49 66.376 194.743 64.711 L 194.743 64.711 L 194.743 64.711 Q 195.995 63.047 198.144 63.047 L 198.144 63.047 L 198.144 63.047 Q 200.582 63.047 201.862 64.973 L 201.862 64.973 L 201.862 58.215 L 203.187 58.215 L 203.187 75.315 L 201.94 75.315 L 201.884 73.712 L 201.884 73.712 Q 200.604 75.538 198.121 75.538 L 198.121 75.538 L 198.121 75.538 Q 196.04 75.538 194.765 73.863 L 194.765 73.863 L 194.765 73.863 Q 193.49 72.187 193.49 69.337 L 193.49 69.337 Z  M 194.837 69.415 L 194.837 69.415 L 194.837 69.415 Q 194.837 71.72 195.761 73.05 L 195.761 73.05 L 195.761 73.05 Q 196.685 74.38 198.366 74.38 L 198.366 74.38 L 198.366 74.38 Q 200.827 74.38 201.862 72.209 L 201.862 72.209 L 201.862 66.554 L 201.862 66.554 Q 200.827 64.205 198.389 64.205 L 198.389 64.205 L 198.389 64.205 Q 196.708 64.205 195.772 65.524 L 195.772 65.524 L 195.772 65.524 Q 194.837 66.843 194.837 69.415 Z  M 37.352 69.226 L 37.352 69.415 L 37.352 69.415 Q 37.352 72.232 36.106 73.885 L 36.106 73.885 L 36.106 73.885 Q 34.859 75.538 32.766 75.538 L 32.766 75.538 L 32.766 75.538 Q 30.294 75.538 28.981 73.801 L 28.981 73.801 L 28.981 79.947 L 27.656 79.947 L 27.656 63.27 L 28.892 63.27 L 28.958 64.973 L 28.958 64.973 Q 30.261 63.047 32.732 63.047 L 32.732 63.047 L 32.732 63.047 Q 34.892 63.047 36.122 64.684 L 36.122 64.684 L 36.122 64.684 Q 37.352 66.32 37.352 69.226 L 37.352 69.226 Z  M 36.017 69.181 L 36.017 69.181 L 36.017 69.181 Q 36.017 66.877 35.07 65.541 L 35.07 65.541 L 35.07 65.541 Q 34.124 64.205 32.432 64.205 L 32.432 64.205 L 32.432 64.205 Q 31.207 64.205 30.328 64.795 L 30.328 64.795 L 30.328 64.795 Q 29.448 65.385 28.981 66.509 L 28.981 66.509 L 28.981 72.287 L 28.981 72.287 Q 29.459 73.323 30.35 73.868 L 30.35 73.868 L 30.35 73.868 Q 31.241 74.414 32.454 74.414 L 32.454 74.414 L 32.454 74.414 Q 34.135 74.414 35.076 73.072 L 35.076 73.072 L 35.076 73.072 Q 36.017 71.731 36.017 69.181 Z  M 45.902 63.192 L 45.869 64.405 L 45.869 64.405 Q 45.446 64.327 44.967 64.327 L 44.967 64.327 L 44.967 64.327 Q 43.72 64.327 42.858 65.023 L 42.858 65.023 L 42.858 65.023 Q 41.995 65.719 41.627 67.044 L 41.627 67.044 L 41.627 75.315 L 40.303 75.315 L 40.303 63.27 L 41.605 63.27 L 41.627 65.185 L 41.627 65.185 Q 42.685 63.047 45.023 63.047 L 45.023 63.047 L 45.023 63.047 Q 45.58 63.047 45.902 63.192 L 45.902 63.192 Z  M 47.016 69.382 L 47.016 69.115 L 47.016 69.115 Q 47.016 67.378 47.689 65.986 L 47.689 65.986 L 47.689 65.986 Q 48.363 64.595 49.593 63.821 L 49.593 63.821 L 49.593 63.821 Q 50.823 63.047 52.382 63.047 L 52.382 63.047 L 52.382 63.047 Q 54.786 63.047 56.278 64.734 L 56.278 64.734 L 56.278 64.734 Q 57.77 66.42 57.77 69.204 L 57.77 69.204 L 57.77 69.482 L 57.77 69.482 Q 57.77 71.23 57.096 72.627 L 57.096 72.627 L 57.096 72.627 Q 56.423 74.024 55.198 74.781 L 55.198 74.781 L 55.198 74.781 Q 53.974 75.538 52.404 75.538 L 52.404 75.538 L 52.404 75.538 Q 50.01 75.538 48.513 73.852 L 48.513 73.852 L 48.513 73.852 Q 47.016 72.165 47.016 69.382 L 47.016 69.382 Z  M 48.352 69.237 L 48.352 69.482 L 48.352 69.482 Q 48.352 71.642 49.471 73.028 L 49.471 73.028 L 49.471 73.028 Q 50.589 74.414 52.404 74.414 L 52.404 74.414 L 52.404 74.414 Q 54.208 74.414 55.326 73.028 L 55.326 73.028 L 55.326 73.028 Q 56.445 71.642 56.445 69.371 L 56.445 69.371 L 56.445 69.115 L 56.445 69.115 Q 56.445 67.734 55.933 66.587 L 55.933 66.587 L 55.933 66.587 Q 55.421 65.441 54.497 64.812 L 54.497 64.812 L 54.497 64.812 Q 53.573 64.183 52.382 64.183 L 52.382 64.183 L 52.382 64.183 Q 50.6 64.183 49.476 65.58 L 49.476 65.58 L 49.476 65.58 Q 48.352 66.977 48.352 69.237 L 48.352 69.237 Z  M 68.291 75.315 L 68.268 73.79 L 68.268 73.79 Q 67.066 75.538 64.427 75.538 L 64.427 75.538 L 64.427 75.538 Q 62.501 75.538 61.5 74.419 L 61.5 74.419 L 61.5 74.419 Q 60.498 73.3 60.475 71.107 L 60.475 71.107 L 60.475 63.27 L 61.8 63.27 L 61.8 70.94 L 61.8 70.94 Q 61.8 74.38 64.583 74.38 L 64.583 74.38 L 64.583 74.38 Q 67.478 74.38 68.246 71.987 L 68.246 71.987 L 68.246 63.27 L 69.582 63.27 L 69.582 75.315 L 68.291 75.315 Z  M 72.51 69.337 L 72.51 69.181 L 72.51 69.181 Q 72.51 66.376 73.762 64.711 L 73.762 64.711 L 73.762 64.711 Q 75.015 63.047 77.163 63.047 L 77.163 63.047 L 77.163 63.047 Q 79.601 63.047 80.882 64.973 L 80.882 64.973 L 80.882 58.215 L 82.207 58.215 L 82.207 75.315 L 80.96 75.315 L 80.904 73.712 L 80.904 73.712 Q 79.624 75.538 77.141 75.538 L 77.141 75.538 L 77.141 75.538 Q 75.059 75.538 73.785 73.863 L 73.785 73.863 L 73.785 73.863 Q 72.51 72.187 72.51 69.337 L 72.51 69.337 Z  M 73.857 69.415 L 73.857 69.415 L 73.857 69.415 Q 73.857 71.72 74.781 73.05 L 74.781 73.05 L 74.781 73.05 Q 75.705 74.38 77.386 74.38 L 77.386 74.38 L 77.386 74.38 Q 79.846 74.38 80.882 72.209 L 80.882 72.209 L 80.882 66.554 L 80.882 66.554 Q 79.846 64.205 77.408 64.205 L 77.408 64.205 L 77.408 64.205 Q 75.727 64.205 74.792 65.524 L 74.792 65.524 L 74.792 65.524 Q 73.857 66.843 73.857 69.415 Z  M 87.205 58.215 L 87.205 75.315 L 85.869 75.315 L 85.869 58.215 L 87.205 58.215 Z  M 90.901 63.27 L 94.642 73.401 L 98.16 63.27 L 99.596 63.27 L 94.453 77.364 L 94.185 77.987 L 94.185 77.987 Q 93.195 80.181 91.124 80.181 L 91.124 80.181 L 91.124 80.181 Q 90.645 80.181 90.1 80.025 L 90.1 80.025 L 90.089 78.923 L 90.779 78.989 L 90.779 78.989 Q 91.758 78.989 92.365 78.505 L 92.365 78.505 L 92.365 78.505 Q 92.972 78.021 93.395 76.841 L 93.395 76.841 L 93.985 75.215 L 89.443 63.27 L 90.901 63.27 Z " fill="rgb(0,0,0)"/><path d=" M 252.947 39.139 L 246.297 39.139 L 249.793 19.037 L 256.481 19.037 L 252.947 39.139 Z  M 245.347 37.315 L 245.043 39.025 L 228.931 37.315 L 245.347 37.315 Z  M 246.639 29.981 L 246.335 31.691 L 230.223 29.981 L 246.639 29.981 Z  M 247.285 26.333 L 246.981 28.043 L 230.869 26.333 L 247.285 26.333 Z  M 247.931 22.685 L 247.627 24.395 L 231.515 22.685 L 247.931 22.685 Z  M 248.539 19.037 L 248.273 20.747 L 232.161 19.037 L 248.539 19.037 Z  M 245.993 33.629 L 245.689 35.339 L 229.577 33.629 L 245.993 33.629 Z  M 280.421 15.389 L 276.279 39.139 L 268.679 39.139 L 271.491 22.989 L 265.145 22.989 L 266.095 17.365 L 274.721 15.389 L 280.421 15.389 Z  M 267.805 37.315 L 267.501 39.025 L 251.389 37.315 L 267.805 37.315 Z  M 269.097 29.981 L 268.793 31.691 L 252.681 29.981 L 269.097 29.981 Z  M 269.743 26.333 L 269.439 28.043 L 253.327 26.333 L 269.743 26.333 Z  M 264.043 22.685 L 263.739 24.395 L 247.627 22.685 L 264.043 22.685 Z  M 264.613 19.037 L 264.347 20.747 L 248.235 19.037 L 264.613 19.037 Z  M 268.451 33.629 L 268.147 35.339 L 252.035 33.629 L 268.451 33.629 Z  M 265.069 16.415 L 264.993 16.757 L 253.137 15.389 L 269.553 15.389 L 265.069 16.415 Z  M 291.631 29.981 L 291.593 30.095 L 291.593 30.095 Q 291.175 30.893 290.947 31.653 L 290.947 31.653 L 275.215 29.981 L 291.631 29.981 Z  M 277.229 22.685 L 293.265 22.685 L 293.265 23.103 L 293.265 23.103 Q 293.265 23.977 293.341 24.395 L 293.341 24.395 L 277.229 22.685 Z  M 277.685 19.037 L 294.063 19.037 L 294.063 19.037 Q 293.683 19.873 293.493 20.709 L 293.493 20.709 L 277.685 19.037 Z  M 274.569 33.629 L 290.605 33.629 L 290.605 33.629 Q 290.567 33.819 290.567 34.294 L 290.567 34.294 L 290.567 34.294 Q 290.567 34.769 290.681 35.339 L 290.681 35.339 L 274.569 33.629 Z  M 294.367 27.055 L 294.367 27.055 L 294.367 27.055 Q 293.721 27.435 293.227 27.967 L 293.227 27.967 L 278.103 26.333 L 293.949 26.333 L 293.949 26.333 Q 294.063 26.599 294.367 27.055 Z  M 281.067 15.389 L 297.407 15.389 L 297.407 15.389 Q 296.381 15.997 295.469 16.947 L 295.469 16.947 L 281.067 15.389 Z  M 276.659 37.315 L 291.289 37.315 L 291.289 37.315 Q 291.783 38.303 292.733 39.025 L 292.733 39.025 L 276.659 37.315 Z  M 304.323 14.819 L 304.323 14.819 L 304.323 14.819 Q 307.971 14.819 310.137 16.092 L 310.137 16.092 L 310.137 16.092 Q 312.303 17.365 312.303 20.215 L 312.303 20.215 L 312.303 20.215 Q 312.303 22.381 311.315 24.262 L 311.315 24.262 L 311.315 24.262 Q 310.327 26.143 308.769 27.169 L 308.769 27.169 L 308.731 27.435 L 308.731 27.435 Q 309.833 28.043 310.46 29.164 L 310.46 29.164 L 310.46 29.164 Q 311.087 30.285 311.087 31.691 L 311.087 31.691 L 311.087 31.691 Q 311.087 34.465 309.567 36.327 L 309.567 36.327 L 309.567 36.327 Q 306.755 39.709 300.181 39.709 L 300.181 39.709 L 300.181 39.709 Q 291.707 39.709 291.707 34.161 L 291.707 34.161 L 291.707 34.161 Q 291.707 31.995 292.885 30.152 L 292.885 30.152 L 292.885 30.152 Q 294.063 28.309 295.963 27.435 L 295.963 27.435 L 296.001 27.169 L 296.001 27.169 Q 294.405 25.801 294.405 23.312 L 294.405 23.312 L 294.405 23.312 Q 294.405 20.823 295.298 19.151 L 295.298 19.151 L 295.298 19.151 Q 296.191 17.479 297.749 16.567 L 297.749 16.567 L 297.749 16.567 Q 300.675 14.819 304.323 14.819 Z  M 300.485 30.019 L 300.485 30.019 L 300.485 30.019 Q 300.067 30.019 299.953 30.665 L 299.953 30.665 L 299.345 33.971 L 300.827 33.971 L 300.827 33.971 Q 302.043 33.971 302.556 33.686 L 302.556 33.686 L 302.556 33.686 Q 303.069 33.401 303.259 32.375 L 303.259 32.375 L 303.411 31.501 L 301.169 30.247 L 301.169 30.247 Q 300.751 30.019 300.485 30.019 Z  M 303.905 24.509 L 303.905 24.509 L 303.905 24.509 Q 304.627 24.509 304.779 23.825 L 304.779 23.825 L 305.311 20.747 L 303.867 20.747 L 303.867 20.747 Q 302.651 20.747 302.1 21.032 L 302.1 21.032 L 302.1 21.032 Q 301.549 21.317 301.397 22.343 L 301.397 22.343 L 301.283 23.065 L 303.411 24.357 L 303.411 24.357 Q 303.715 24.509 303.905 24.509 Z  M 338.447 39.139 L 333.279 39.139 L 329.365 31.615 L 329.213 31.615 L 327.883 39.139 L 321.499 39.139 L 324.995 19.037 L 330.163 19.037 L 334.115 26.523 L 334.343 26.523 L 335.635 19.037 L 341.981 19.037 L 338.447 39.139 Z  M 320.549 37.315 L 320.245 39.025 L 304.133 37.315 L 320.549 37.315 Z  M 321.841 29.981 L 321.537 31.691 L 305.425 29.981 L 321.841 29.981 Z  M 322.487 26.333 L 322.183 28.043 L 306.071 26.333 L 322.487 26.333 Z  M 323.133 22.685 L 322.829 24.395 L 306.717 22.685 L 323.133 22.685 Z  M 323.741 19.037 L 323.475 20.747 L 307.363 19.037 L 323.741 19.037 Z  M 321.195 33.629 L 320.891 35.339 L 304.779 33.629 L 321.195 33.629 Z  M 53.675 33.059 L 52.611 39.139 L 38.171 39.139 L 42.351 15.389 L 49.571 15.389 L 46.455 33.059 L 53.675 33.059 Z  M 37.335 37.315 L 37.031 39.025 L 20.919 37.315 L 37.335 37.315 Z  M 38.627 29.981 L 38.323 31.691 L 22.211 29.981 L 38.627 29.981 Z  M 39.273 26.333 L 38.969 28.043 L 22.857 26.333 L 39.273 26.333 Z  M 39.919 22.685 L 39.615 24.395 L 23.503 22.685 L 39.919 22.685 Z  M 40.527 19.037 L 40.261 20.747 L 24.149 19.037 L 40.527 19.037 Z  M 37.981 33.629 L 37.677 35.339 L 21.565 33.629 L 37.981 33.629 Z  M 41.173 15.389 L 40.869 17.099 L 24.795 15.389 L 41.173 15.389 Z  M 80.693 39.139 L 74.043 39.139 L 73.891 36.061 L 69.103 36.061 L 67.925 39.139 L 61.351 39.139 L 69.787 19.037 L 79.211 19.037 L 80.693 39.139 Z  M 71.117 30.627 L 73.891 30.627 L 73.891 24.851 L 73.359 24.851 L 71.117 30.627 Z  M 60.857 37.315 L 60.135 38.987 L 44.555 37.315 L 60.857 37.315 Z  M 62.415 33.629 L 61.693 35.301 L 46.113 33.629 L 62.415 33.629 Z  M 63.935 29.981 L 63.251 31.653 L 47.671 29.981 L 63.935 29.981 Z  M 65.493 26.333 L 64.771 28.005 L 49.229 26.333 L 65.493 26.333 Z  M 67.013 22.685 L 66.329 24.357 L 50.787 22.685 L 67.013 22.685 Z  M 68.533 19.037 L 67.849 20.671 L 52.345 19.037 L 68.533 19.037 Z  M 94.107 19.037 L 103.759 19.037 L 103.759 19.037 Q 109.307 19.037 109.307 24.053 L 109.307 24.053 L 109.307 24.053 Q 109.307 26.333 108.395 28.784 L 108.395 28.784 L 108.395 28.784 Q 107.483 31.235 105.317 32.451 L 105.317 32.451 L 107.483 39.139 L 100.377 39.139 L 98.933 33.287 L 98.021 33.287 L 96.995 39.139 L 90.611 39.139 L 94.107 19.037 Z  M 102.125 26.941 L 102.353 25.611 L 102.353 25.611 Q 102.353 25.573 102.391 25.231 L 102.391 25.231 L 102.391 25.231 Q 102.391 24.585 100.377 24.585 L 100.377 24.585 L 99.541 24.585 L 98.933 28.081 L 100.149 28.081 L 100.149 28.081 Q 101.897 28.081 102.125 26.941 L 102.125 26.941 Z  M 89.661 37.315 L 89.357 39.025 L 73.245 37.315 L 89.661 37.315 Z  M 90.953 29.981 L 90.649 31.691 L 74.537 29.981 L 90.953 29.981 Z  M 91.599 26.333 L 91.295 28.043 L 75.183 26.333 L 91.599 26.333 Z  M 92.245 22.685 L 91.941 24.395 L 75.829 22.685 L 92.245 22.685 Z  M 92.853 19.037 L 92.587 20.747 L 76.475 19.037 L 92.853 19.037 Z  M 90.307 33.629 L 90.003 35.339 L 73.891 33.629 L 90.307 33.629 Z  M 136.895 39.139 L 130.245 39.139 L 130.093 36.061 L 125.305 36.061 L 124.127 39.139 L 117.553 39.139 L 125.989 19.037 L 135.413 19.037 L 136.895 39.139 Z  M 127.319 30.627 L 130.093 30.627 L 130.093 24.851 L 129.561 24.851 L 127.319 30.627 Z  M 117.059 37.315 L 116.337 38.987 L 100.757 37.315 L 117.059 37.315 Z  M 118.617 33.629 L 117.895 35.301 L 102.315 33.629 L 118.617 33.629 Z  M 120.137 29.981 L 119.453 31.653 L 103.873 29.981 L 120.137 29.981 Z  M 121.695 26.333 L 120.973 28.005 L 105.431 26.333 L 121.695 26.333 Z  M 123.215 22.685 L 122.531 24.357 L 106.989 22.685 L 123.215 22.685 Z  M 124.735 19.037 L 124.051 20.671 L 108.547 19.037 L 124.735 19.037 Z  M 148.333 19.037 L 155.363 19.037 L 155.363 30.513 L 155.515 30.513 L 159.923 19.037 L 166.801 19.037 L 158.669 39.139 L 149.435 39.139 L 148.333 19.037 Z  M 148.181 39.025 L 132.183 37.315 L 148.067 37.315 L 148.181 39.025 Z  M 147.953 35.339 L 131.955 33.629 L 147.877 33.629 L 147.953 35.339 Z  M 147.193 20.747 L 131.081 19.037 L 147.079 19.037 L 147.193 20.747 Z  M 147.383 24.395 L 131.309 22.685 L 147.307 22.685 L 147.383 24.395 Z  M 147.573 28.043 L 131.537 26.333 L 147.459 26.333 L 147.573 28.043 Z  M 147.763 31.691 L 131.765 29.981 L 147.649 29.981 L 147.763 31.691 Z  M 187.359 27.321 L 186.713 30.969 L 181.051 30.969 L 180.595 33.553 L 187.625 33.553 L 186.637 39.139 L 173.223 39.139 L 176.719 19.037 L 190.095 19.037 L 188.309 24.737 L 182.115 24.737 L 181.659 27.321 L 187.359 27.321 Z  M 172.273 37.315 L 171.969 39.025 L 155.857 37.315 L 172.273 37.315 Z  M 173.565 29.981 L 173.261 31.691 L 157.149 29.981 L 173.565 29.981 Z  M 174.211 26.333 L 173.907 28.043 L 157.795 26.333 L 174.211 26.333 Z  M 174.857 22.685 L 174.553 24.395 L 158.441 22.685 L 174.857 22.685 Z  M 175.465 19.037 L 175.199 20.747 L 159.087 19.037 L 175.465 19.037 Z  M 172.919 33.629 L 172.615 35.339 L 156.503 33.629 L 172.919 33.629 Z  M 211.489 33.553 L 210.501 39.139 L 198.151 39.139 L 201.647 19.037 L 208.335 19.037 L 205.789 33.553 L 211.489 33.553 Z  M 197.201 37.315 L 196.897 39.025 L 180.785 37.315 L 197.201 37.315 Z  M 198.493 29.981 L 198.189 31.691 L 182.077 29.981 L 198.493 29.981 Z  M 199.139 26.333 L 198.835 28.043 L 182.723 26.333 L 199.139 26.333 Z  M 199.785 22.685 L 199.481 24.395 L 183.369 22.685 L 199.785 22.685 Z  M 200.393 19.037 L 200.127 20.747 L 184.015 19.037 L 200.393 19.037 Z  M 197.847 33.629 L 197.543 35.339 L 181.431 33.629 L 197.847 33.629 Z " fill="rgb(249,50,44)"/></g></g></g></svg>